<svg id="visual" viewBox="0 0 900 150" width="900" height="150" xmlns="http://www.w3.org/2000/svg" xmlns:xlink="http://www.w3.org/1999/xlink" version="1.1"><rect x="0" y="0" width="900" height="150" fill="#111827"></rect><path d="M0 63L8.8 60.3C17.7 57.7 35.3 52.3 53 55C70.7 57.7 88.3 68.3 106 71C123.7 73.7 141.3 68.3 159 60.2C176.7 52 194.3 41 212 43.2C229.7 45.3 247.3 60.7 265 68.7C282.7 76.7 300.3 77.3 318 75.2C335.7 73 353.3 68 371 62C388.7 56 406.3 49 423.8 49.8C441.3 50.7 458.7 59.3 476.2 63.3C493.7 67.3 511.3 66.7 529 59.7C546.7 52.7 564.3 39.3 582 40.3C599.7 41.3 617.3 56.7 635 63.2C652.7 69.7 670.3 67.3 688 64C705.7 60.7 723.3 56.3 741 52.7C758.7 49 776.3 46 794 43C811.7 40 829.3 37 847 36.3C864.7 35.7 882.3 37.3 891.2 38.2L900 39L900 151L891.2 151C882.3 151 864.7 151 847 151C829.3 151 811.7 151 794 151C776.3 151 758.7 151 741 151C723.3 151 705.7 151 688 151C670.3 151 652.7 151 635 151C617.3 151 599.7 151 582 151C564.3 151 546.7 151 529 151C511.3 151 493.7 151 476.2 151C458.7 151 441.3 151 423.8 151C406.3 151 388.7 151 371 151C353.3 151 335.7 151 318 151C300.3 151 282.7 151 265 151C247.3 151 229.7 151 212 151C194.3 151 176.7 151 159 151C141.3 151 123.7 151 106 151C88.3 151 70.7 151 53 151C35.3 151 17.7 151 8.8 151L0 151Z" fill="#3e4c5f"></path><path d="M0 71L8.8 67.8C17.7 64.7 35.3 58.3 53 57.8C70.7 57.3 88.3 62.7 106 63.2C123.7 63.7 141.3 59.3 159 55.7C176.7 52 194.3 49 212 55.2C229.7 61.3 247.3 76.7 265 76.3C282.7 76 300.3 60 318 56.5C335.7 53 353.3 62 371 68.5C388.7 75 406.3 79 423.8 75.7C441.3 72.3 458.7 61.7 476.2 59.8C493.7 58 511.3 65 529 66.8C546.7 68.7 564.3 65.3 582 65.7C599.7 66 617.3 70 635 74.3C652.7 78.7 670.3 83.3 688 82C705.7 80.7 723.3 73.3 741 72.8C758.7 72.3 776.3 78.7 794 78.8C811.7 79 829.3 73 847 68.3C864.7 63.7 882.3 60.3 891.2 58.7L900 57L900 151L891.2 151C882.3 151 864.7 151 847 151C829.3 151 811.7 151 794 151C776.3 151 758.7 151 741 151C723.3 151 705.7 151 688 151C670.3 151 652.7 151 635 151C617.3 151 599.7 151 582 151C564.3 151 546.7 151 529 151C511.3 151 493.7 151 476.2 151C458.7 151 441.3 151 423.8 151C406.3 151 388.7 151 371 151C353.3 151 335.7 151 318 151C300.3 151 282.7 151 265 151C247.3 151 229.7 151 212 151C194.3 151 176.7 151 159 151C141.3 151 123.7 151 106 151C88.3 151 70.7 151 53 151C35.3 151 17.7 151 8.8 151L0 151Z" fill="#313e4f"></path><path d="M0 70L8.8 70.2C17.7 70.3 35.3 70.7 53 74C70.7 77.3 88.3 83.7 106 84C123.7 84.3 141.3 78.7 159 80.8C176.7 83 194.3 93 212 96.7C229.7 100.3 247.3 97.7 265 95.3C282.7 93 300.3 91 318 86.8C335.7 82.7 353.3 76.3 371 74C388.7 71.7 406.3 73.3 423.8 74.8C441.3 76.3 458.7 77.7 476.2 81C493.7 84.3 511.3 89.7 529 87.8C546.7 86 564.3 77 582 76.2C599.7 75.3 617.3 82.7 635 84C652.7 85.3 670.3 80.7 688 77.5C705.7 74.3 723.3 72.7 741 74.3C758.7 76 776.3 81 794 85.8C811.7 90.7 829.3 95.3 847 93.5C864.7 91.7 882.3 83.3 891.2 79.2L900 75L900 151L891.2 151C882.3 151 864.7 151 847 151C829.3 151 811.7 151 794 151C776.3 151 758.7 151 741 151C723.3 151 705.7 151 688 151C670.3 151 652.7 151 635 151C617.3 151 599.7 151 582 151C564.3 151 546.7 151 529 151C511.3 151 493.7 151 476.2 151C458.7 151 441.3 151 423.8 151C406.3 151 388.7 151 371 151C353.3 151 335.7 151 318 151C300.3 151 282.7 151 265 151C247.3 151 229.7 151 212 151C194.3 151 176.7 151 159 151C141.3 151 123.7 151 106 151C88.3 151 70.7 151 53 151C35.3 151 17.7 151 8.8 151L0 151Z" fill="#25303f"></path><path d="M0 115L8.8 111C17.7 107 35.3 99 53 98.8C70.7 98.7 88.3 106.3 106 108.5C123.7 110.7 141.3 107.3 159 107.8C176.7 108.3 194.3 112.7 212 111.3C229.7 110 247.3 103 265 98.3C282.7 93.7 300.3 91.3 318 88.8C335.7 86.3 353.3 83.7 371 86.8C388.7 90 406.3 99 423.8 105C441.3 111 458.7 114 476.2 113.2C493.7 112.3 511.3 107.7 529 107.2C546.7 106.7 564.3 110.3 582 108C599.7 105.7 617.3 97.3 635 96.8C652.7 96.3 670.3 103.7 688 104.7C705.7 105.7 723.3 100.3 741 100.3C758.7 100.3 776.3 105.7 794 107.5C811.7 109.3 829.3 107.7 847 107C864.7 106.3 882.3 106.7 891.2 106.8L900 107L900 151L891.2 151C882.3 151 864.7 151 847 151C829.3 151 811.7 151 794 151C776.3 151 758.7 151 741 151C723.3 151 705.7 151 688 151C670.3 151 652.7 151 635 151C617.3 151 599.7 151 582 151C564.3 151 546.7 151 529 151C511.3 151 493.7 151 476.2 151C458.7 151 441.3 151 423.8 151C406.3 151 388.7 151 371 151C353.3 151 335.7 151 318 151C300.3 151 282.7 151 265 151C247.3 151 229.7 151 212 151C194.3 151 176.7 151 159 151C141.3 151 123.7 151 106 151C88.3 151 70.7 151 53 151C35.3 151 17.7 151 8.8 151L0 151Z" fill="#1e2734"></path><path d="M0 126L8.8 121.7C17.7 117.3 35.3 108.7 53 107.2C70.7 105.7 88.3 111.3 106 111.2C123.7 111 141.3 105 159 103C176.7 101 194.3 103 212 103.2C229.7 103.3 247.3 101.7 265 104.7C282.7 107.7 300.3 115.3 318 117.2C335.7 119 353.3 115 371 113C388.7 111 406.3 111 423.8 111.7C441.3 112.3 458.7 113.7 476.2 114.2C493.7 114.7 511.3 114.3 529 116.7C546.7 119 564.3 124 582 121.3C599.7 118.7 617.3 108.3 635 105.8C652.7 103.3 670.3 108.7 688 110.3C705.7 112 723.3 110 741 111.2C758.7 112.3 776.3 116.7 794 119.8C811.7 123 829.3 125 847 122.2C864.7 119.3 882.3 111.7 891.2 107.8L900 104L900 151L891.2 151C882.3 151 864.7 151 847 151C829.3 151 811.7 151 794 151C776.3 151 758.7 151 741 151C723.3 151 705.7 151 688 151C670.3 151 652.7 151 635 151C617.3 151 599.7 151 582 151C564.3 151 546.7 151 529 151C511.3 151 493.7 151 476.2 151C458.7 151 441.3 151 423.8 151C406.3 151 388.7 151 371 151C353.3 151 335.7 151 318 151C300.3 151 282.7 151 265 151C247.3 151 229.7 151 212 151C194.3 151 176.7 151 159 151C141.3 151 123.7 151 106 151C88.3 151 70.7 151 53 151C35.3 151 17.7 151 8.8 151L0 151Z" fill="#1b232f"></path><path d="M0 140L8.8 139.2C17.7 138.3 35.3 136.7 53 135C70.7 133.3 88.3 131.7 106 129C123.7 126.3 141.3 122.7 159 123C176.7 123.3 194.3 127.7 212 128.3C229.7 129 247.3 126 265 127.2C282.7 128.3 300.3 133.7 318 133.2C335.7 132.7 353.3 126.3 371 125C388.7 123.7 406.3 127.3 423.8 127.8C441.3 128.3 458.7 125.7 476.2 124.5C493.7 123.3 511.3 123.7 529 126.3C546.7 129 564.3 134 582 133.7C599.7 133.3 617.3 127.7 635 126.7C652.7 125.7 670.3 129.3 688 130.3C705.7 131.3 723.3 129.7 741 129.8C758.7 130 776.3 132 794 133C811.7 134 829.3 134 847 133.7C864.7 133.3 882.3 132.7 891.2 132.3L900 132L900 151L891.2 151C882.3 151 864.7 151 847 151C829.3 151 811.7 151 794 151C776.3 151 758.7 151 741 151C723.3 151 705.7 151 688 151C670.3 151 652.7 151 635 151C617.3 151 599.7 151 582 151C564.3 151 546.7 151 529 151C511.3 151 493.7 151 476.2 151C458.7 151 441.3 151 423.8 151C406.3 151 388.7 151 371 151C353.3 151 335.7 151 318 151C300.3 151 282.7 151 265 151C247.3 151 229.7 151 212 151C194.3 151 176.7 151 159 151C141.3 151 123.7 151 106 151C88.3 151 70.7 151 53 151C35.3 151 17.7 151 8.8 151L0 151Z" fill="#191f29"></path></svg>