<svg version="1.1" id="Layer_1" xmlns="http://www.w3.org/2000/svg" xmlns:xlink="http://www.w3.org/1999/xlink" x="0px" y="0px"
	 width="100%" viewBox="0 0 496 496" enable-background="new 0 0 496 496" xml:space="preserve">
<path fill="#000000" opacity="1.000000" stroke="none" 
	d="
M187.531738,141.317001 
	C240.363998,127.320312 287.527740,158.650177 301.804199,192.639832 
	C295.942841,193.679550 290.133118,192.670242 284.440033,193.224472 
	C276.821014,193.966202 271.535767,191.547058 265.841156,185.769409 
	C245.666901,165.301025 220.474564,159.217468 193.213150,166.770340 
	C166.996109,174.033844 149.763199,191.989685 142.091721,218.320221 
	C129.987259,259.865936 157.916794,304.527527 201.896118,311.323181 
	C227.436127,315.269623 249.697037,307.338959 267.532043,288.430603 
	C270.848724,284.914276 273.979309,283.378876 278.701538,283.586639 
	C286.302368,283.921143 293.928711,283.676453 301.378998,283.676453 
	C302.163788,286.405823 300.811218,287.868530 299.896179,289.359100 
	C282.456390,317.767731 256.937531,334.525818 224.081696,338.029327 
	C166.111267,344.210938 124.958977,306.776917 115.323303,261.211731 
	C103.346756,204.577042 137.722244,154.468140 187.531738,141.317001 
z"/>
<path fill="#000000" opacity="1.000000" stroke="none" 
	d="
M366.642761,216.332230 
	C377.224335,227.750702 378.528107,247.679245 369.885712,260.142212 
	C366.270966,265.354980 361.229279,268.520447 355.330261,270.047760 
	C344.714996,272.796143 333.910065,270.755707 323.688141,271.350647 
	C322.263306,269.463745 322.659821,268.090729 322.658936,266.793854 
	C322.646790,249.142242 322.742065,231.489914 322.591553,213.839615 
	C322.558624,209.979248 323.733459,208.375397 327.716949,208.635468 
	C336.000000,209.176270 344.338379,207.871887 352.609894,209.480713 
	C357.813293,210.492798 362.414917,212.577148 366.642761,216.332230 
M336.345825,254.189240 
	C336.357208,256.378357 336.121826,258.800446 339.280823,258.964508 
	C348.123108,259.423828 355.171936,259.101746 359.299194,251.251053 
	C363.456970,243.342346 361.923920,230.091202 356.452881,224.959915 
	C351.972076,220.757370 346.417908,221.212997 340.923462,221.076401 
	C337.480530,220.990814 336.223969,222.336243 336.285400,225.789383 
	C336.448273,234.941849 336.342834,244.099091 336.345825,254.189240 
z"/>
<path fill="#000000" opacity="1.000000" stroke="none" 
	d="
M199.172562,270.504913 
	C193.730194,262.694794 188.600800,255.154480 183.295944,247.356247 
	C179.401871,249.854889 177.065231,252.723938 177.152267,257.170349 
	C177.194611,259.333313 177.160751,261.497650 177.166229,263.661377 
	C177.185684,271.357208 177.186462,271.357208 169.524323,271.338623 
	C162.780609,271.322266 162.754379,271.322296 162.746994,264.848724 
	C162.727997,248.204605 162.866379,231.558716 162.646667,214.917435 
	C162.584641,210.218430 163.965775,208.413269 168.866470,208.581589 
	C177.147064,208.865982 177.157928,208.602737 177.162277,216.678696 
	C177.165405,222.471512 177.162872,228.264328 177.162872,235.610825 
	C182.862885,228.668777 188.346634,223.257843 192.282944,216.890305 
	C197.786789,207.987076 205.415543,207.554779 214.232895,209.230453 
	C214.927017,211.464279 213.073410,212.520493 211.993576,213.846817 
	C206.637283,220.425690 201.325378,227.047272 195.753479,233.440857 
	C193.450424,236.083542 193.575150,238.043015 195.540833,240.809021 
	C201.323410,248.945786 206.845932,257.268097 212.421906,265.550323 
	C213.418762,267.031006 214.838928,268.326691 215.000549,270.976105 
	C209.806061,271.486359 204.664948,271.757690 199.172562,270.504913 
z"/>
<path fill="#000000" opacity="1.000000" stroke="none" 
	d="
M296.019012,246.197479 
	C294.861420,246.196106 294.195129,246.194519 293.528839,246.194427 
	C283.805359,246.193176 283.926270,246.188766 284.278748,255.725082 
	C284.393616,258.833008 285.621796,259.770966 288.516907,259.725128 
	C295.178009,259.619629 301.849274,259.891449 308.502350,259.639496 
	C312.823792,259.475800 313.440918,261.715210 313.327667,265.210571 
	C313.221069,268.500793 313.607330,271.510559 308.633514,271.420685 
	C296.184265,271.195648 283.728210,271.346405 271.872681,271.346405 
	C270.473907,269.951508 270.623169,268.925293 270.623810,267.936157 
	C270.635559,250.279678 270.842926,232.619888 270.541168,214.968781 
	C270.452209,209.764755 272.195892,208.426743 277.112610,208.580215 
	C287.429993,208.902283 297.768555,208.846954 308.089966,208.596344 
	C312.511108,208.488983 313.375061,210.458740 313.326874,214.310074 
	C313.278839,218.150467 312.843536,220.690033 307.964203,220.417633 
	C301.654236,220.065384 295.306213,220.457764 288.981201,220.285995 
	C285.585480,220.193787 283.948669,221.324265 284.326141,224.873016 
	C284.466309,226.190552 284.491333,227.554794 284.318665,228.864761 
	C283.782013,232.935883 285.719208,234.121597 289.507355,233.990112 
	C295.163757,233.793762 300.834625,234.048065 306.494904,233.918045 
	C310.817535,233.818726 311.300720,236.382568 311.181244,239.782898 
	C311.066101,243.061615 311.357391,246.376801 306.503571,246.205490 
	C303.176544,246.088058 299.841675,246.192627 296.019012,246.197479 
z"/>
<path fill="#000000" opacity="1.000000" stroke="none" 
	d="
M238.116943,268.113892 
	C232.835541,261.841431 227.794769,255.863647 222.766052,249.875763 
	C221.483093,248.348129 220.195602,246.846603 219.977509,244.700623 
	C219.582855,240.817459 220.290924,238.284821 225.162811,238.536575 
	C230.038254,238.788513 235.215454,239.200821 239.514374,233.552887 
	C232.550949,233.552887 226.430908,233.552887 220.462067,233.552887 
	C219.238281,225.921997 220.877533,223.805588 227.322739,223.772141 
	C230.729782,223.754456 234.136993,223.768997 237.571777,223.209961 
	C232.487366,218.197083 225.845474,221.670319 220.292831,219.773224 
	C218.955536,211.329315 221.076202,208.686478 229.103073,208.681015 
	C238.255096,208.674774 247.407257,208.650879 256.559021,208.697754 
	C258.341034,208.706879 260.221588,208.258240 261.870575,209.330307 
	C262.290222,216.521194 261.418457,217.498489 253.272171,218.817459 
	C253.072922,221.950378 254.146454,223.776352 257.650787,223.818848 
	C259.487213,223.841110 262.345062,223.239304 262.034515,226.298599 
	C261.758850,229.014114 262.097961,232.681290 257.896606,233.239532 
	C256.252655,233.457977 254.290115,233.215622 253.676056,235.179504 
	C251.406891,242.436783 245.905945,246.017624 238.098358,248.149536 
	C244.266815,255.852661 249.968582,262.972961 255.670334,270.093262 
	C255.408707,270.486176 255.147079,270.879120 254.885468,271.272034 
	C249.385590,270.255768 243.249054,274.096954 238.116943,268.113892 
z"/>
<path fill="#000000" opacity="1.000000" stroke="none" 
	d="
M386.327606,271.191895 
	C383.422760,270.054169 383.989532,267.819794 383.985046,265.926819 
	C383.944397,248.787399 384.087769,231.646439 383.890137,214.509232 
	C383.836639,209.869675 385.498779,208.457260 390.014923,208.590057 
	C398.271790,208.832840 398.287170,208.606918 398.290985,216.654480 
	C398.298462,232.462799 398.300415,248.271118 398.294067,264.079437 
	C398.291138,271.352356 398.279755,271.355621 390.777893,271.336639 
	C389.447113,271.333252 388.116486,271.289856 386.327606,271.191895 
z"/>
</svg>